<svg xmlns="http://www.w3.org/2000/svg" xlink="http://www.w3.org/1999/xlink" width="0" height="0" style="display:none;"><symbol viewBox="0 0 24 24" id="time-line"><path fill="none" d="M0 0h24v24H0z"/><path d="M12 22C6.477 22 2 17.523 2 12S6.477 2 12 2s10 4.477 10 10-4.477 10-10 10zm0-2a8 8 0 1 0 0-16 8 8 0 0 0 0 16zm1-8h4v2h-6V7h2v5z"/></symbol><symbol viewBox="0 0 24 24" id="refresh-line"><path fill="none" d="M0 0h24v24H0z"/><path d="M5.463 4.433A9.961 9.961 0 0 1 12 2c5.523 0 10 4.477 10 10 0 2.136-.67 4.116-1.81 5.74L17 12h3A8 8 0 0 0 6.46 6.228l-.997-1.795zm13.074 15.134A9.961 9.961 0 0 1 12 22C6.477 22 2 17.523 2 12c0-2.136.67-4.116 1.81-5.74L7 12H4a8 8 0 0 0 13.54 5.772l.997 1.795z"/></symbol></svg>