<?xml version="1.0" encoding="UTF-8"?>
<svg width="24px" height="24px" viewBox="0 0 24 24" version="1.1" xmlns="http://www.w3.org/2000/svg" xmlns:xlink="http://www.w3.org/1999/xlink">
    <title>Icon/parite</title>
    <g id="Symbols" stroke="none" stroke-width="1" fill="none" fill-rule="evenodd">
        <g id="Icon/parite">
            <rect id="Rectangle" fill-opacity="0" fill="#D8D8D8" x="0" y="0" width="24" height="24"></rect>
            <path d="M9.40782709,9 C10.0819868,9 10.7066659,9.3392089 11.0749382,9.89509056 L11.1615447,10.0385041 L12.459,12.406 L13.7574438,10.0385041 C14.0815447,9.44736123 14.6792962,9.06267981 15.3437721,9.00699594 L15.5111614,9 L19.9189885,9 C20.9733503,9 21.8371537,9.81587779 21.9135028,10.8507377 L21.9189885,11 L21.9189885,15 C21.9189885,15.7060007 21.5531782,16.3265617 21.0007603,16.6824804 L21,21 C21,22.0543618 20.1841222,22.9181651 19.1492623,22.9945143 L19,23 L17,23 C15.9456382,23 15.0818349,22.1841222 15.0054857,21.1492623 L15,21 L15,16.7964466 L17,16.7964466 L17,21 L19,21 L19,15 L19.9189885,15 L19.9189885,11 L15.5111614,11 L12.459,16.566 L9.40782709,11 L5,11 L5,15 L6,15 L6,21 L8,21 L8,16.7964466 L10,16.7964466 L10,21 C10,22.0543618 9.18412221,22.9181651 8.14926234,22.9945143 L8,23 L6,23 C4.9456382,23 4.08183488,22.1841222 4.00548574,21.1492623 L4,21 L4.0003072,16.7326133 C3.44288527,16.4102942 3.05546506,15.8266975 3.00548574,15.1492623 L3,15 L3,11 C3,9.9456382 3.81587779,9.08183488 4.85073766,9.00548574 L5,9 L9.40782709,9 Z M7,2 C8.65685425,2 10,3.34314575 10,5 C10,6.65685425 8.65685425,8 7,8 C5.34314575,8 4,6.65685425 4,5 C4,3.34314575 5.34314575,2 7,2 Z M18,2 C19.6568542,2 21,3.34314575 21,5 C21,6.65685425 19.6568542,8 18,8 C16.3431458,8 15,6.65685425 15,5 C15,3.34314575 16.3431458,2 18,2 Z M7,4 C6.44771525,4 6,4.44771525 6,5 C6,5.55228475 6.44771525,6 7,6 C7.55228475,6 8,5.55228475 8,5 C8,4.44771525 7.55228475,4 7,4 Z M18,4 C17.4477153,4 17,4.44771525 17,5 C17,5.55228475 17.4477153,6 18,6 C18.5522847,6 19,5.55228475 19,5 C19,4.44771525 18.5522847,4 18,4 Z" id="Combined-Shape" fill="#000091"></path>
        </g>
    </g>
</svg>