<?xml version="1.0" encoding="UTF-8"?>
<svg width="452px" height="288px" viewBox="0 0 452 288" version="1.1" xmlns="http://www.w3.org/2000/svg" xmlns:xlink="http://www.w3.org/1999/xlink">
    <title>undraw_segment_analysis_bdn4</title>
    <defs>
        <path d="M26.4,19.1791108 C26.4,19.1791108 19.8,8.06076767 20.24,5.39236531 C20.5107865,3.86363878 20.503649,2.29782819 20.2189372,0.771688621 L16.28,3.16869667 L0,10.72917 L6.6,32.9658564 C6.6,32.9658564 4.84,37.8579274 4.84,41.4157972 C4.84,44.973667 5.72,48.9762705 4.84,50.3104717 C3.96,51.6446729 3.52,53.8683415 4.4,55.6472764 C4.92526139,56.7534001 5.079721,58.002371 4.84,59.2051463 C4.84,59.2051463 -1.32,62.7630161 2.2,63.6524835 C4.51883162,64.1691367 6.92116838,64.1691367 9.24,63.6524835 C9.24,63.6524835 9.68,62.3182824 13.2,64.0972173 C16.72,65.8761522 35.2,66.3208859 35.2,66.3208859 C35.2,66.3208859 47.08,66.7656196 46.64,64.9866847 C46.2,63.2077498 48.84,42.3052646 48.84,42.3052646 L55,12.9528387 L40.92,4.05816413 L36.37216,0 L35.2,6.28183276 L26.4,19.1791108 Z" id="path-1"></path>
    </defs>
    <g id="Pages-d'erreur-et-presentation" stroke="none" stroke-width="1" fill="none" fill-rule="evenodd">
        <g id="Home" transform="translate(-151.000000, -1121.000000)">
            <g id="undraw_segment_analysis_bdn4" transform="translate(151.000000, 1121.000000)">
                <ellipse id="Oval" fill="#3F3D56" fill-rule="nonzero" cx="109.5" cy="273" rx="109.5" ry="15"></ellipse>
                <path d="M401,131 L307.271177,131 L258,210.972134 C272.796958,220.166941 289.864085,225.026041 307.271177,225 C359.036167,225 401,182.914686 401,131 Z" id="Path" fill="#F2F2F2" fill-rule="nonzero"></path>
                <circle id="Oval" fill="#3F3D56" fill-rule="nonzero" cx="173.5" cy="240.5" r="24.5"></circle>
                <path d="M126.314344,56 C126.314344,56 127.225839,65.0697674 124.491353,68.6976744 C121.756867,72.3255814 131.327569,95 131.327569,95 L145,69.6046512 C145,69.6046512 140.442523,66.8837209 143.177009,59.1744186 L126.314344,56 Z" id="Path" fill="#FFB9B9" fill-rule="nonzero"></path>
                <path d="M126.314344,56 C126.314344,56 127.225839,65.0697674 124.491353,68.6976744 C121.756867,72.3255814 131.327569,95 131.327569,95 L145,69.6046512 C145,69.6046512 140.442523,66.8837209 143.177009,59.1744186 L126.314344,56 Z" id="Path" fill="#000000" fill-rule="nonzero" opacity="0.1"></path>
                <path d="M165.577778,103.160617 L166,120.782329 L149.955556,147 L147,137.114649 L155.866667,119.492936 C155.866667,119.492936 152.911111,111.326776 153.755556,106.599 C154.6,101.871223 165.577778,103.160617 165.577778,103.160617 Z" id="Path" fill="#FFB9B9" fill-rule="nonzero"></path>
                <path d="M96.4222222,101.160617 L96,118.782329 L112.044444,145 L115,135.114649 L106.133333,117.492936 C106.133333,117.492936 109.088889,109.326776 108.244444,104.599 C107.4,99.8712229 96.4222222,101.160617 96.4222222,101.160617 Z" id="Path" fill="#FFB9B9" fill-rule="nonzero"></path>
                <path d="M111.14624,131 L109.356754,135.458381 C104.528357,139.928257 101.911625,146.284681 102.198812,152.846065 L96.8303552,208.129985 C96.8303552,208.129985 93.2513841,212.142527 94.5934982,217.046746 C94.5934982,217.046746 91.4618985,233.542754 93.2513841,238.892811 C93.2513841,238.892811 85.6460705,252.713791 93.6987555,253.605467 C101.75144,254.497143 104.435669,254.497143 105.330412,251.376277 C106.225154,248.255411 107.567268,236.663621 107.567268,236.663621 L127.25161,167.112883 L130.383209,210.359175 C130.383209,210.359175 127.25161,221.950965 128.146352,225.071831 C129.041095,228.192698 121.883153,250.484601 125.014753,252.713791 C128.146352,254.942982 137.09378,255.834658 137.541151,254.051305 C137.988523,252.267953 138.435894,241.122002 138.435894,241.122002 C138.435894,241.122002 142.909608,231.313564 143.804351,228.192698 C144.699094,225.071831 145.593836,207.684147 145.593836,207.684147 L153.646521,156.41277 C153.646521,156.41277 155.436007,142.59179 150.962293,139.916761 L149.172807,131.891676 L111.14624,131 Z" id="Path" fill="#2F2E41" fill-rule="nonzero"></path>
                <path d="M91.0404077,249 L89.2686162,257.679245 C89.2686162,257.679245 79.9667111,272 88.8256683,272 C97.6846256,272 98.5705214,267.660377 98.5705214,267.660377 L98.5705214,263.754717 C98.5705214,263.754717 103,261.584906 103,261.150943 C103,260.716981 101.671156,250.301887 101.671156,250.301887 L91.0404077,249 Z" id="Path" fill="#2F2E41" fill-rule="nonzero"></path>
                <path d="M133.959592,249 L135.731384,257.679245 C135.731384,257.679245 145.033289,272 136.174332,272 C127.315374,272 126.429479,267.660377 126.429479,267.660377 L126.429479,263.754717 C126.429479,263.754717 122,261.584906 122,261.150943 C122,260.716981 123.328844,250.301887 123.328844,250.301887 L133.959592,249 Z" id="Path" fill="#2F2E41" fill-rule="nonzero"></path>
                <circle id="Oval" fill="#FFB9B9" fill-rule="nonzero" cx="135.5" cy="53.5" r="11.5"></circle>
                <g id="Group" transform="translate(108.000000, 67.000000)">
                    <mask id="mask-2" fill="white">
                        <use xlink:href="#path-1"></use>
                    </mask>
                    <use id="Path" fill="#D0CDE1" fill-rule="nonzero" xlink:href="#path-1"></use>
                    <g id="echarpe" mask="url(#mask-2)">
                        <g transform="translate(4.230769, 4.281955)" id="Path">
                            <path d="M4.23076923,0 C5.48455742,37.164146 15.3058982,62.1422161 33.6947917,74.9342105 C33.6947917,74.9342105 34.4503739,72.685996 35.9615385,68.1895669 C19.8228451,57.2400941 10.8397348,34.5102385 9.01220755,0 C9.01220755,0 7.41839478,0 4.23076923,0 Z" fill="#000091"></path>
                            <path d="M2.11538462,0 C5.26994296,39.2443815 16.5519942,67.7907474 35.9615385,85.6390977 C35.9615385,85.6390977 35.9615385,83.3905132 35.9615385,78.8933442 C16.5474594,59.7551124 6.30672117,33.457331 5.23932382,0 C5.23932382,0 4.19801075,0 2.11538462,0 Z" fill="#F2F2F9"></path>
                            <path d="M0,0 C3.35629628,39.0816836 13.0225712,66.2007312 28.9988247,81.3571429 C28.9988247,81.3571429 31.3197293,80.8297562 35.9615385,79.774983 C17.5222652,66.300236 6.40460605,39.708575 2.60856106,0 C2.60856106,0 1.7390407,0 0,0 Z" fill="#E1000F"></path>
                        </g>
                    </g>
                </g>
                <path d="M107.554371,80 L104.377754,80 C104.377754,80 88.2677672,99.1935484 92.8057916,102.354839 C97.3438159,105.516129 113,108 113,108 C113,108 111.638593,80 107.554371,80 Z" id="Path" fill="#D0CDE1" fill-rule="nonzero"></path>
                <path d="M157.591125,80 L161.784469,80 C161.784469,80 172.966719,106.322079 169.239303,107.262153 C165.511886,108.202227 152,111.02245 152,109.612338 C152,108.202227 157.591125,80 157.591125,80 Z" id="Path" fill="#D0CDE1" fill-rule="nonzero"></path>
                <path d="M124.932003,56.5311028 C124.932003,56.5311028 123.607072,54.7016694 124.116658,52.731506 C124.421146,51.6129428 124.541392,50.4586247 124.473372,49.3071805 C125.043396,47.6004333 125.75905,45.9378207 126.613652,44.3348686 C127.683775,42.5523409 127.174198,41.8018027 130.537492,41.2389001 C133.900786,40.6759975 132.524895,36.6418551 141.391757,41.0043545 C142.003488,41.7905911 143.069085,42.1607425 144.092583,41.9425283 C145.927104,41.614167 146.589572,43.9595974 146.589572,43.9595974 C146.589572,43.9595974 147.812591,43.3028791 148.271221,44.2410487 C148.729851,45.1792182 152,43.6779756 152,50.0106383 C152,56.343301 148.278687,62 148.278687,62 C148.278687,62 148.551494,51.3477045 142.487375,50.2688051 C136.423255,49.1899056 129.900505,46.0470314 128.320776,50.0811694 C127.468042,52.3453419 126.330735,54.5100063 124.932003,56.5311028 L124.932003,56.5311028 Z" id="Path" fill="#2F2E41" fill-rule="nonzero"></path>
                <path d="M304.20991,215.999969 C286.607135,216.014173 269.349741,211.178724 254.380205,202.037865 L254,201.805375 L254.235118,201.430109 L303.960369,122 L399,122 L399,122.441693 C399,174.030036 356.477321,215.999969 304.20991,215.999969 Z M255.231961,201.518103 C269.974099,210.424193 286.925462,215.130643 304.20991,215.116583 C355.835336,215.116583 397.863314,173.78332 398.104115,122.883386 L304.459446,122.883386 L255.231961,201.518103 Z" id="Shape" fill="#3F3D56" fill-rule="nonzero"></path>
                <path d="M191,115.785431 C190.984649,148.470696 207.858867,178.82891 235.586333,196 L285,115.785431 L203.372936,69 C195.241183,83.2417542 190.975017,99.373428 191,115.785431 Z" id="Path" fill="#F2F2F2" fill-rule="nonzero"></path>
                <path d="M242.676112,194 L242.301164,193.766843 C199.502272,167.174776 185.354818,111.295679 210.303569,67.3839091 L210.522473,67 L292,113.785069 L242.676112,194 Z M210.850712,68.2088382 C186.512908,111.525339 200.411059,166.417512 242.390698,192.779251 L290.770542,114.099536 L210.850712,68.2088382 Z" id="Shape" fill="#3F3D56" fill-rule="nonzero"></path>
                <path d="M331.264202,11 L311,103 L405,103 C405,57.9467387 373.437427,20.2873454 331.264202,11 Z" id="Path" fill="#5770BE" fill-rule="nonzero"></path>
                <path d="M399,106 L305,106 L325.264016,14 L325.694434,14.0947719 C368.511129,23.5786537 398.995146,61.613452 399,105.557864 L399,106 Z M306.098657,105.115727 L398.116765,105.115727 C397.909527,62.215108 367.643834,24.4521631 325.935278,15.0541727 L306.098657,105.115727 Z" id="Shape" fill="#3F3D56" fill-rule="nonzero"></path>
                <path d="M290.714189,0 C256.940728,-0.0133186956 225.752367,18.0613022 209,47.3559106 L290.714189,94 L311,2.19710157 C304.337364,0.734898464 297.535723,-0.00176647872 290.714189,0 Z" id="Path" fill="#F2F2F2" fill-rule="nonzero"></path>
                <path d="M295.316384,102 L212,54.9033084 L212.223934,54.5165618 C232.954588,18.6928402 274.806594,0.343610116 315.560035,9.21077886 L316,9.30643148 L295.316384,102 Z M213.229791,54.5728875 L294.701052,100.626492 L314.926678,9.98579923 C274.840547,1.46162307 233.76914,19.4686094 213.229791,54.5728875 L213.229791,54.5728875 Z" id="Shape" fill="#3F3D56" fill-rule="nonzero"></path>
                <polygon id="Path" fill="#3F3D56" fill-rule="nonzero" points="345.643294 76 345 75.3827898 393.511902 23 433 23 433 23.8997233 393.8939 23.8997233"></polygon>
                <rect id="Rectangle" fill="#5770BE" fill-rule="nonzero" x="404" y="30" width="48" height="2"></rect>
                <rect id="Rectangle" fill="#5770BE" fill-rule="nonzero" x="404" y="37" width="48" height="2"></rect>
                <rect id="Rectangle" fill="#5770BE" fill-rule="nonzero" x="404" y="42" width="48" height="2"></rect>
                <rect id="Rectangle" fill="#5770BE" fill-rule="nonzero" x="390" y="226" width="48" height="2"></rect>
                <rect id="Rectangle" fill="#5770BE" fill-rule="nonzero" x="390" y="235" width="48" height="2"></rect>
                <rect id="Rectangle" fill="#5770BE" fill-rule="nonzero" x="390" y="242" width="48" height="2"></rect>
                <polygon id="Path" fill="#3F3D56" fill-rule="nonzero" points="419 219 371.244267 219 371.109406 218.809659 334 166.49893 334.744903 166 371.719449 218.120828 419 218.120828"></polygon>
                <path d="M25.1762435,252.930114 C23.7525312,266.184951 31.4221433,278 31.4221433,278 C31.4221433,278 41.4000442,268.324718 42.8237565,255.069886 C44.2474687,241.815053 36.5778609,230 36.5778609,230 C36.5778609,230 26.5999599,239.6753 25.1762435,252.930114 Z" id="Path" fill="#2F2E41" fill-rule="nonzero"></path>
                <path d="M30.424064,250.32666 C35.4409326,261.924638 31.583848,275 31.583848,275 C31.583848,275 19.5928121,269.271322 14.5759393,257.673344 C9.55906645,246.075366 13.4161511,233 13.4161511,233 C13.4161511,233 25.4071912,238.728678 30.424064,250.32666 Z" id="Path" fill="#5770BE" fill-rule="nonzero"></path>
            </g>
        </g>
    </g>
</svg>