<?xml version="1.0" encoding="UTF-8"?>
<svg width="454px" height="414px" viewBox="0 0 454 414" version="1.1" xmlns="http://www.w3.org/2000/svg" xmlns:xlink="http://www.w3.org/1999/xlink">
    <title>undraw_Sharing_articles_re_jnkp</title>
    <g id="Pages-d'erreur-et-presentation" stroke="none" stroke-width="1" fill="none" fill-rule="evenodd">
        <g id="Home" transform="translate(-833.000000, -1779.000000)" fill-rule="nonzero">
            <g id="undraw_Sharing_articles_re_jnkp" transform="translate(833.000000, 1779.000000)">
                <path d="M276.676096,276 L176.323904,276 C175.593079,276 175,275.407245 175,274.676818 L175,164.323187 C175,163.592758 175.593077,163 176.323904,163 L276.676096,163 C277.406922,163 278,163.592754 278,164.323182 L278,274.676813 C278,275.40724 277.406922,276 276.676096,276 Z" id="Path" fill="#FFFFFF"></path>
                <path d="M276.676096,276 L176.323904,276 C175.593079,276 175,275.407245 175,274.676818 L175,164.323187 C175,163.592758 175.593077,163 176.323904,163 L276.676096,163 C277.406922,163 278,163.592754 278,164.323182 L278,274.676813 C278,275.40724 277.406922,276 276.676096,276 Z M176.323878,163.529308 C175.885372,163.529308 175.529535,163.884957 175.529535,164.323224 L175.529535,274.676849 C175.529535,275.115116 175.885372,275.470765 176.323878,275.470765 L276.676069,275.470765 C277.114575,275.470765 277.470413,275.115121 277.470413,274.676855 L277.470413,164.323224 C277.470413,163.884958 277.114575,163.529308 276.676069,163.529308 L176.323878,163.529308 Z" id="Shape" fill="#3F3D56"></path>
                <path d="M219.701926,205 L195.298074,205 C194.581507,204.99918 194.00082,204.418493 194,203.701926 L194,179.298074 C194.00082,178.581507 194.581507,178.00082 195.298074,178 L219.701926,178 C220.418493,178.000823 220.99918,178.581512 221,179.298079 L221,203.701926 C220.99918,204.418493 220.418493,204.99918 219.701926,205 L219.701926,205 Z M195.298084,178.519229 C194.868136,178.519701 194.519711,178.868125 194.519239,179.298074 L194.519239,203.701926 C194.519711,204.131875 194.868136,204.480299 195.298084,204.480771 L219.701936,204.480771 C220.131887,204.480299 220.480312,204.131872 220.480782,203.701921 L220.480782,179.298074 C220.480312,178.86812 220.13188,178.519692 219.701926,178.519229 L195.298084,178.519229 Z" id="Shape" fill="#F2F2F2"></path>
                <path d="M212.820392,208 L188.179613,208 C187.528435,207.999266 187.000734,207.471565 187,206.820387 L187,182.179613 C187.000734,181.528435 187.528435,181.000734 188.179613,181 L212.820387,181 C213.471565,181.000734 213.999266,181.528435 214,182.179613 L214,206.820387 C213.999269,207.471564 213.471569,207.999266 212.820392,208 Z" id="Path" fill="#5770BE"></path>
                <path d="M265.811917,220 L188.190573,220 C187.76552,220.000745 187.372372,219.810311 187.159588,219.500603 C186.946804,219.190895 186.946804,218.809103 187.159588,218.499395 C187.372372,218.189687 187.76552,217.999252 188.190573,218 L265.811917,218 C266.468077,218 267,218.447717 267,219 C267,219.552285 266.468077,220 265.811917,220 L265.811917,220 Z" id="Path" fill="#CCCCCC"></path>
                <path d="M246.816857,228 L188.185622,228 C187.762336,228.000745 187.370824,227.810311 187.158925,227.500603 C186.947025,227.190895 186.947025,226.809103 187.158925,226.499395 C187.370824,226.189687 187.762336,225.999252 188.185622,226 L246.816857,226 C247.470289,226 248,226.447717 248,227 C248,227.552285 247.470289,228 246.816857,228 L246.816857,228 Z" id="Path" fill="#CCCCCC"></path>
                <path d="M265.799728,190 L231.197762,190 C230.536256,190 230,189.552285 230,189 C230,188.447717 230.536256,188 231.197762,188 L265.799728,188 C266.228244,187.999252 266.624594,188.189687 266.839112,188.499395 C267.053629,188.809103 267.053629,189.190895 266.839112,189.500603 C266.624594,189.810311 266.228244,190.000745 265.799728,190 L265.799728,190 Z" id="Path" fill="#5770BE"></path>
                <path d="M256.817521,198 L231.182474,198 C230.529411,198 230,197.552285 230,197 C230,196.447715 230.529411,196 231.182474,196 L256.817526,196 C257.470589,196 258,196.447715 258,197 C258,197.552285 257.470589,198 256.817526,198 L256.817521,198 Z" id="Path" fill="#5770BE"></path>
                <path d="M265.809427,237 L188.188083,237 C187.531923,237 187,236.552285 187,236 C187,235.447717 187.531923,235 188.188083,235 L265.809427,235 C266.23448,234.999252 266.627628,235.189687 266.840412,235.499395 C267.053196,235.809103 267.053196,236.190895 266.840412,236.500603 C266.627628,236.810311 266.23448,237.000745 265.809427,237 L265.809427,237 Z" id="Path" fill="#CCCCCC"></path>
                <path d="M246.814383,245 L188.183143,245 C187.529711,245 187,244.552285 187,244 C187,243.447717 187.529711,243 188.183143,243 L246.814378,243 C247.237664,242.999252 247.629176,243.189687 247.841075,243.499395 C248.052975,243.809103 248.052975,244.190895 247.841075,244.500603 C247.629176,244.810311 247.237664,245.000745 246.814378,245 L246.814383,245 Z" id="Path" fill="#CCCCCC"></path>
                <path d="M265.811917,253 L188.190573,253 C187.76552,253.000745 187.372372,252.810311 187.159588,252.500603 C186.946804,252.190895 186.946804,251.809103 187.159588,251.499395 C187.372372,251.189687 187.76552,250.999252 188.190573,251 L265.811917,251 C266.468077,251 267,251.447717 267,252 C267,252.552285 266.468077,253 265.811917,253 L265.811917,253 Z" id="Path" fill="#CCCCCC"></path>
                <path d="M265.81188,261 L188.188118,261 C187.531938,261 187,260.552281 187,260 C187,259.447714 187.531938,259 188.188118,259 L265.81188,259 C266.46806,259 267,259.447715 267,260 C267,260.552285 266.46806,261 265.81188,261 L265.81188,261 Z" id="Path" fill="#CCCCCC"></path>
                <path d="M155,324.999969 C155.005891,356.650877 135.651048,385.081244 106.210254,396.667199 C105.081779,397.119834 103.932502,397.541253 102.778025,397.931456 C101.488318,398.373686 100.184764,398.779496 98.8673637,399.148888 C97.9521026,399.403845 97.0281742,399.643169 96.0955785,399.866861 C82.0567373,403.232554 67.3570343,402.605448 53.6555428,398.056321 C52.5790708,397.697334 51.5129996,397.312334 50.4573291,396.911726 C49.0376342,396.365442 47.6335404,395.777537 46.2554483,395.14801 C46.1514414,395.106414 46.0526348,395.059564 45.9538282,395.012771 C45.412992,394.763015 44.8877569,394.513311 44.3521211,394.247974 L44.3469208,394.247974 C43.6136718,393.89419 42.887367,393.526532 42.1680064,393.145001 C40.5142716,392.270947 38.8969636,391.339663 37.3160822,390.351149 C36.4944273,389.841264 35.6849065,389.312322 34.8875199,388.764325 C9.22785408,371.432092 -3.54673186,340.400176 2.47009665,310.016196 C8.48692516,279.632215 32.1226802,255.817039 62.4493615,249.581622 C63.8066522,249.300676 65.1778105,249.057883 66.5628364,248.853243 C67.4312944,248.717973 68.3101532,248.603514 69.1890119,248.504662 C69.8182539,248.431824 70.447496,248.364189 71.0871387,248.312162 L71.0923391,248.312162 C72.8032534,248.156081 74.5297687,248.058964 76.2718851,248.020811 C76.5111011,248.015608 76.7503171,248.010405 76.9947334,248.005203 C77.1299425,248.005203 77.2651515,248 77.4003605,248.005203 L77.4055609,248.005203 C77.6135748,248 77.8215887,248 78.0348029,248 C78.9084613,248 79.7821197,248.015608 80.6505777,248.046824 C82.5643056,248.109257 84.4572321,248.241059 86.3293572,248.44223 C87.4110294,248.556689 88.4771007,248.697162 89.5431719,248.853243 C89.6627799,248.874054 89.7875882,248.889662 89.9071962,248.910473 C90.2608199,248.967703 90.6196438,249.024932 90.9732675,249.087365 C91.7221175,249.207027 92.4657672,249.3475 93.2094169,249.498378 C93.9062634,249.638851 94.5979097,249.784527 95.2895559,249.940608 C97.8458221,250.524039 100.369727,251.241264 102.850861,252.089324 C119.66626,257.840661 133.982613,269.221382 143.382369,284.309662 C143.647587,284.731081 143.907604,285.157703 144.162421,285.589527 C144.360035,285.912095 144.547247,286.234662 144.73446,286.562433 C144.802064,286.671669 144.864468,286.780925 144.921672,286.890203 C144.963275,286.952635 144.994477,287.015068 145.030879,287.0775 C145.374102,287.675811 145.706925,288.284527 146.029346,288.893243 C151.937799,300.009244 155.018723,312.410031 155,324.999969 Z" id="Path" fill="#FFFFFF"></path>
                <path d="M77.5383369,402 C69.197445,402 60.9107603,400.658806 52.9949626,398.028703 C51.9743272,397.688135 50.9220213,397.311495 49.7771265,396.876961 C48.3327552,396.321278 46.9095894,395.723944 45.5449922,395.100453 C45.4541137,395.064642 45.3462302,395.014112 45.2383467,394.963056 C44.7208886,394.724073 44.2149196,394.483816 43.7003779,394.229594 L43.6272737,394.196072 C42.8972822,393.844071 42.1584737,393.469975 41.4314039,393.084707 C39.7755233,392.209277 38.1325876,391.263224 36.5487818,390.273027 C35.7246158,389.761535 34.9009593,389.22312 34.1021161,388.674044 C8.27885715,371.228427 -4.57628874,339.995761 1.47998484,309.415811 C7.53625842,278.835862 31.3238446,254.867344 61.8450531,248.591598 C63.2061619,248.309949 64.5995704,248.063342 65.9859293,247.858391 C66.8071113,247.730648 67.6977843,247.612298 68.629132,247.507659 C69.2623341,247.434264 69.8972049,247.366185 70.5426031,247.313652 C72.2557266,247.157968 74.0098418,247.059175 75.7564086,247.020571 L76.619097,247.004062 C76.7179035,247.002538 76.8167101,247.001779 76.9155218,247.005331 C77.1005957,247 77.3127028,247 77.5302009,247 C78.4097643,247 79.2958677,247.015744 80.163864,247.046983 C82.0813277,247.109716 84.0043176,247.243554 85.8776755,247.444953 C86.8696297,247.549841 87.9272071,247.685204 89.1101772,247.858412 L89.6099909,247.937648 C89.9243149,247.988189 90.2416801,248.039494 90.5549852,248.094856 C91.2291322,248.202522 91.9462361,248.334348 92.803336,248.508315 C93.5032478,248.649524 94.1985847,248.79581 94.8939893,248.952758 C97.4673941,249.540713 100.008335,250.262798 102.506419,251.116059 C119.421156,256.920474 133.824657,268.370956 143.298283,283.544737 C143.564751,283.96785 143.826865,284.397903 144.084623,284.834896 C144.280464,285.154134 144.470274,285.481247 144.660083,285.813691 C144.721007,285.911475 144.78504,286.023213 144.844637,286.135722 C144.873703,286.181436 144.899406,286.226895 144.924791,286.272609 L144.954299,286.324928 C145.280996,286.894576 145.610292,287.49318 145.962629,288.158323 C156.3067,307.664172 157.845816,330.657712 150.193778,351.369352 C142.54174,372.080993 126.424812,388.544969 105.887089,396.630103 C104.786108,397.071753 103.622534,397.500452 102.432031,397.902734 C101.142753,398.344893 99.8179566,398.757338 98.4965138,399.127876 C97.5814121,399.382863 96.6430202,399.626158 95.7065934,399.850925 C89.7557752,401.278064 83.6577285,402 77.5383369,402 L77.5383369,402 Z M43.9719894,393.207374 L43.9747187,393.207374 L44.0890122,393.261467 C44.6200493,393.524578 45.1409386,393.7722 45.677242,394.019811 C45.7717388,394.064511 45.8605795,394.106922 45.9541873,394.144512 C47.3222105,394.768763 48.725642,395.357967 50.148054,395.905016 C51.2774619,396.333714 52.316823,396.705777 53.3231828,397.041524 C66.9275014,401.562218 81.5246128,402.18488 95.464157,398.839112 C96.3883357,398.617398 97.3144795,398.377396 98.2166988,398.125967 C99.5184073,397.761015 100.824238,397.354411 102.097073,396.918098 C103.271601,396.520892 104.41688,396.099049 105.503264,395.66324 C134.817248,384.259617 154.079277,355.965767 153.951727,324.498588 L153.951727,324.497828 C153.958939,311.99815 150.900541,299.687551 145.044242,288.646176 C144.697176,287.990681 144.373401,287.401986 144.054195,286.845794 L144.015798,286.777475 C143.999365,286.748015 143.983436,286.718051 143.963696,286.688585 L143.935395,286.640843 C143.883865,286.542553 143.82766,286.444098 143.76678,286.345479 C143.572972,286.006939 143.388491,285.68897 143.193794,285.371281 C142.937093,284.936232 142.679762,284.513884 142.417285,284.097122 C133.070451,269.12552 118.859274,257.827538 102.170235,252.100445 C99.7070201,251.258935 97.2014876,250.546937 94.6639102,249.967369 C93.9775203,249.812195 93.2899866,249.667433 92.5973737,249.528003 C91.7541077,249.356829 91.0505204,249.227562 90.3825962,249.12064 C90.0659276,249.064768 89.7536987,249.014482 89.4444538,248.964451 L88.9457786,248.885464 C87.7905436,248.716574 86.746358,248.58299 85.7674162,248.47937 C83.9188041,248.28051 82.0217505,248.14845 80.1282321,248.086737 C79.2708775,248.055753 78.3973394,248.040258 77.5302113,248.040258 C77.3186969,248.040258 77.1175902,248.040258 76.9138791,248.045085 C76.7950835,248.042037 76.7135366,248.043052 76.6321769,248.044045 L75.7788826,248.060809 C74.056495,248.098653 72.3264238,248.195922 70.6371051,248.350077 L70.584749,248.352111 C69.9934225,248.401887 69.3702384,248.468936 68.7470074,248.541062 C67.8283966,248.644427 66.9525294,248.760743 66.1418177,248.886947 C64.7710652,249.089614 63.3973962,249.332659 62.0549455,249.6105 C31.9426141,255.80183 8.47380056,279.449459 2.49939706,309.61982 C-3.47500645,339.790182 9.20923102,370.603982 34.6875057,387.814347 C35.4765129,388.356839 36.2864605,388.886089 37.0983783,389.389961 C38.662429,390.367742 40.2833431,391.301328 41.917649,392.165071 C42.5981904,392.525977 43.2885834,392.876199 43.9719894,393.207374 Z" id="Shape" fill="#CBCBCB"></path>
                <path d="M143.014618,308.12797 C141.323509,310.318892 138.74162,311.653742 135.963684,311.773341 C133.185749,311.892939 130.497124,310.785 128.621265,308.747648 L108.432249,316 L101,304.896399 L129.655708,295.052158 C133.394679,292.085772 138.777873,292.364147 142.186085,295.700129 C145.594297,299.036111 145.950244,304.375248 143.014618,308.127955 L143.014618,308.12797 Z" id="Path" fill="#9F616A"></path>
                <polygon id="Path" fill="#CCCCCC" points="80 308.651455 121.933574 295 129 310.191671 89.9042553 322"></polygon>
                <path d="M96,399.852439 C81.7759266,403.240888 66.8822729,402.609541 53,398.029655 L53.9484132,389.114776 L54.8283299,380.78654 L68.02708,360.500214 L72.2580566,354 L89.6930523,360.301175 L91.4686926,371.431679 L94.2981252,389.182869 L96,399.852439 Z" id="Path" fill="#2F2E41"></path>
                <path d="M106,396.54603 C104.876295,396.997455 103.731876,397.417747 102.582278,397.806906 C101.298023,398.247952 99.9999793,398.652678 98.6881473,399.021082 C97.7767549,399.275356 96.8567319,399.514041 95.9280783,399.737134 C81.9485784,403.093825 67.31101,402.468396 53.6674338,397.931436 C52.5955121,397.57341 51.5339471,397.18944 50.4827388,396.789903 C50.6261991,399.862572 50.5327108,402.941752 50.203107,406 C48.7072342,402.416055 47.4038739,398.754452 46.2986191,395.030905 C46.2209436,394.781843 46.1484465,394.532781 46.0759494,394.28375 C45.7134638,393.028064 45.3924051,391.829454 45.1024166,390.703488 C44.7710012,389.401102 44.486191,388.192115 44.2479862,387.086903 C43.3003452,382.749077 43,380.066475 43,380.066475 L53.1237054,359 L55.1484465,359.233469 L55.9873418,359.326868 L61.0621404,359.908012 L68.4361335,360.753784 L80.3826237,362.118435 L91.4746835,371.582782 L101.411968,380.066449 C101.411968,380.066449 102.240506,382.889149 103.540276,387.564246 C104.244539,390.075598 105.078251,393.12141 106,396.54603 Z" id="Path" fill="#2F2E41"></path>
                <circle id="Oval" fill="#9F616A" cx="74" cy="238" r="18"></circle>
                <path d="M85.6690029,275.430535 C85.6690029,275.430535 81.3581651,262 71.2201976,262 C68.6857058,262 64.5956486,262.21172 61.2706026,264.398633 C47.8843889,273.202887 39.7408051,288.168295 39.1168968,304.266667 L36,384.690567 C36,384.690567 53.1565076,390.978663 59.395248,388.620644 C65.6339885,386.262625 71.8726874,370.542327 71.8726874,370.542327 C71.8726874,370.542327 70.3130101,391.764692 76.5517349,390.978694 C82.7904598,390.192696 106.185708,388.620644 106.965549,385.476596 C107.74539,382.332548 95.0270461,314.731274 95.0270461,314.731274 L85.6690029,275.430535 Z" id="Path" fill="#CCCCCC"></path>
                <path d="M64.5994024,242.624236 C66.230481,242.528173 67.8231262,243.072248 69.4428829,243.284504 C75.2379569,244.043916 81.2665903,239.893218 82.5461498,234.262964 C82.6487065,233.513199 82.8750972,232.785101 83.2163156,232.107633 C84.1082092,230.670324 86.1394319,230.396304 87.8138742,230.726812 C89.4883164,231.057319 91.0755478,231.830838 92.7808019,231.91916 C95.413739,232.055529 97.9414837,230.455599 99.3446954,228.252345 C100.747907,226.049092 101.145181,223.338038 100.955758,220.742357 L99.6935496,222.049938 C99.1806509,220.978934 98.9826306,219.78733 99.1220216,218.61072 C97.7618534,218.253178 96.3111854,218.619568 95.2921735,219.578009 C94.1792041,219.694923 95.0191979,217.54038 94.1923341,216.795795 C93.7901812,216.551922 93.3108804,216.463411 92.8466043,216.547285 C90.4788794,216.569812 88.5635086,214.782296 86.6976932,213.343306 C83.46491,210.855614 79.6844961,209.153563 75.6620063,208.374721 C72.9883652,207.859989 70.1453219,207.777286 67.6097664,208.759978 C65.5274429,209.567012 63.7845123,211.036877 62.1719618,212.567354 C58.2022988,216.334989 54.687129,220.761828 53.0356301,225.947447 C51.6930563,230.194884 51.6550282,234.739653 52.9263431,239.008399 C53.5917784,241.225272 55.5972878,248.81747 58.5332871,248.994281 C62.2224371,249.216435 60.0075048,242.894665 64.5994024,242.624236 Z" id="Path" fill="#2F2E41"></path>
                <polygon id="Path" fill="#000000" opacity="0.1" points="72 299 53.8155682 326.08587 48 389"></polygon>
                <ellipse id="Oval" fill="#3F3D56" transform="translate(150.245923, 282.571619) rotate(-54.492770) translate(-150.245923, -282.571619) " cx="150.245923" cy="282.571619" rx="1.378069" ry="1"></ellipse>
                <path d="M126.01833,312 L126.01833,312 C124.92638,311.222333 124.672758,309.708395 125.451845,308.618483 L125.451845,308.618483 L146.612154,279.016432 C147.39125,277.926523 148.908036,277.673368 150,278.450995 L150,278.450995 L126.018309,312 L126.01833,312 Z" id="Path" fill="#5770BE"></path>
                <path d="M127.030499,315 L125.816845,314.12827 C125.396152,313.8261 125.111925,313.368062 125.026692,312.854922 C124.941459,312.341781 125.062202,311.815571 125.362358,311.392053 L149.244577,277.694445 C149.772326,276.949808 150.799759,276.776843 151.539445,277.30811 L151.539445,277.30811 L153,278.357193 L153,278.357193 L127.030489,315 L127.030489,315 L127.030499,315 Z" id="Path" fill="#2F2E41"></path>
                <polygon id="Rectangle" fill="#D0CDE1" transform="translate(147.903037, 282.592874) rotate(-54.492770) translate(-147.903037, -282.592874) " points="146.52497 282.248357 149.281103 282.248357 149.281103 282.937391 146.52497 282.937391"></polygon>
                <polygon id="Rectangle" fill="#D0CDE1" transform="translate(145.701977, 285.677826) rotate(-54.492770) translate(-145.701977, -285.677826) " points="144.323911 285.333308 147.080044 285.333308 147.080044 286.022343 144.323911 286.022343"></polygon>
                <path d="M52.2227275,409.95313 C53.8538527,407.657727 54.3973723,404.748453 53.707036,402.008136 C53.0166997,399.267819 51.1634207,396.977952 48.64588,395.754693 L49.8108049,373.948968 L36.9002178,370 L35.6821301,400.817307 C33.894275,405.336353 35.726099,410.495587 39.9460391,412.826376 C44.1659792,415.157165 49.4401802,413.922786 52.2227171,409.95313 L52.2227275,409.95313 Z" id="Path" fill="#9F616A"></path>
                <path d="M51.6697778,392 L33.1075576,392 L28,334.101859 L28.0175082,334.049298 L45.3911217,282.380624 C47.059331,277.419339 51.3516224,273.837632 56.4795837,273.127847 C61.607545,272.418062 66.6916003,274.701944 69.6134438,279.027899 C72.5352873,283.353854 72.7937483,288.97987 70.2811375,293.56183 L49.8380481,330.842201 L51.6697778,392 Z" id="Path" fill="#CCCCCC"></path>
                <path d="M454,141.428055 C454.040098,184.017465 419.70506,218.658807 377.116403,218.997498 C334.527746,219.336189 299.646093,185.2453 299.008852,142.660638 C298.371612,100.075976 332.217597,64.9566686 374.79732,64.0209265 C375.037978,64.0156949 375.278636,64.0104633 375.524526,64.0052316 C375.869818,64 376.220341,64 376.570865,64 C377.44979,64 378.328715,64.0156949 379.202408,64.0470846 C381.127672,64.1098641 383.032009,64.2423986 384.91542,64.4446882 C386.003613,64.5597839 387.07611,64.7010378 388.148608,64.8579866 C388.268937,64.8789131 388.394498,64.8946079 388.514827,64.9155344 C392.940596,65.5978012 397.297898,66.6674177 401.536518,68.1120575 C432.908172,78.8109417 453.997506,108.282615 454,141.428055 Z" id="Path" fill="#FFFFFF"></path>
                <path d="M375.998691,220 C333.021863,220.002045 298.040546,185.060322 298.000035,142.075676 C297.960159,99.6378249 331.85755,64.9554627 374.286273,64.0228932 L375.013337,64.0070619 C376.245282,63.989442 377.498932,64.0052733 378.720275,64.0491949 C380.647233,64.112274 382.581853,64.2468526 384.468727,64.4496201 C385.467638,64.5550885 386.5318,64.6911994 387.720967,64.865364 L388.100843,64.9248658 C426.058174,70.8183759 454.041977,103.517946 453.999953,141.92909 L453.999953,141.928567 C454.040507,184.936705 419.082815,219.959384 376.073555,220 L375.998691,220 Z M376.062535,65.0479541 C375.717393,65.0479541 375.37225,65.0479541 375.032469,65.0530638 L374.309364,65.068895 C332.769807,65.9815944 299.006899,100.52647 299.046065,142.074651 C299.086063,184.48012 333.601703,218.951958 375.998691,218.953998 L376.072493,218.953998 C418.504983,218.913905 452.993803,184.360861 452.953888,141.929602 L452.953888,141.929079 C452.995798,104.030316 425.383152,71.7677463 387.931491,65.9570761 L387.555444,65.8980868 C386.394111,65.7280122 385.343616,65.5937003 384.357854,65.4897486 C382.49576,65.2895386 380.587322,65.1567435 378.68437,65.0946894 C377.821961,65.0635343 376.943203,65.0479541 376.070705,65.0479541 L376.062535,65.0479541 Z" id="Shape" fill="#CBCBCB"></path>
                <ellipse id="Oval" fill="#3F3D56" transform="translate(316.202679, 145.019879) rotate(-57.656000) translate(-316.202679, -145.019879) " cx="316.202679" cy="145.019879" rx="1" ry="1.37806379"></ellipse>
                <path d="M315,141.11874 L315,141.11874 C315.342077,140.57966 315.884739,140.198268 316.508605,140.058465 C317.132471,139.918663 317.786437,140.031903 318.326636,140.373272 L318.326636,140.373272 L348.878944,159.680269 C349.419144,160.021639 349.801327,160.563176 349.941416,161.185747 C350.081506,161.808318 349.968026,162.460924 349.625942,163 L349.625942,163 L315,141.118745 L315,141.11874 Z" id="Path" fill="#5770BE"></path>
                <path d="M312,142.263434 L312.96299,140.759338 C313.450673,139.997609 314.470312,139.77113 315.240444,140.253476 L315.240444,140.253476 L350.091006,162.082213 C350.529016,162.356557 350.838904,162.791769 350.952496,163.292106 C351.066088,163.792444 350.974079,164.316922 350.696711,164.75016 L349.896514,166 L349.896514,166 L312,142.263423 L312,142.263434 Z" id="Path" fill="#2F2E41"></path>
                <polygon id="Rectangle" fill="#D0CDE1" transform="translate(318.380699, 144.156258) rotate(-57.656000) translate(-318.380699, -144.156258) " points="318.036174 142.778191 318.725224 142.778191 318.725224 145.534324 318.036174 145.534324"></polygon>
                <polygon id="Rectangle" fill="#D0CDE1" transform="translate(321.582414, 146.183756) rotate(-57.656000) translate(-321.582414, -146.183756) " points="321.237889 144.805689 321.926939 144.805689 321.926939 147.561822 321.237889 147.561822"></polygon>
                <circle id="Oval" fill="#FFB8B8" cx="376.5" cy="50.5" r="21.5"></circle>
                <path d="M396.747556,216.123087 C379.229453,221.077404 360.545652,219.599091 344,211.949559 L345.658891,167.064446 L345.783308,163.573381 L345.829964,162.439442 L345.886989,160.77003 L345.928461,159.704337 C345.928461,159.704337 345.995853,159.699087 346.125454,159.693838 C346.477995,159.667589 347.291862,159.609842 348.45827,159.541596 C349.811303,159.46285 351.630899,159.363105 353.75117,159.27386 C354.254021,159.252861 354.772425,159.231862 355.30638,159.205614 C366.472791,158.785636 383.911885,158.696391 386.218781,162.103459 L386.509087,164.108853 L386.97565,167.347931 L387.929512,173.967829 C387.929512,173.967829 398.774503,195.806693 396.747556,216.123087 Z" id="Path" fill="#2F2E41"></path>
                <path d="M403,103.655324 L398.732718,143.247523 L390.605773,161.304317 L387.593859,168 L344,167.46923 L348.49148,136.949962 C342.150557,120.49609 357.210235,113.861473 357.210235,113.861473 L372.831665,81.7118751 C372.831665,81.7118751 376.992788,79.6220229 387.858054,79.0960332 C397.958863,78.6070548 389.996299,80.1444859 389.996299,80.1444859 C403.20655,78.8175342 403,103.655324 403,103.655324 Z" id="Path" fill="#CCCCCC"></path>
                <path d="M390,144.945205 L381.696821,163 C379.029896,158.096232 377,152.54234 377,149.262542 C377,140.240447 386.177758,145.016848 386.177758,145.016848 C386.177758,145.016848 378.754552,105.080816 378.754552,93.1398011 C378.754552,85.2083061 385.481274,120.407745 390,144.945205 Z" id="Path" fill="#000000" opacity="0.2"></path>
                <path d="M401.304868,37.3104334 C399.895441,33.8695965 397.715218,30.7983876 394.932191,28.333451 C396.073492,27.9505987 397.02632,27.1474777 397.597122,26.0872294 C398.431045,24.4359578 397.989258,22.3651818 396.855523,20.8872432 C395.822113,19.6385524 394.485476,18.6762798 392.973682,18.0926271 C394.081313,18.596571 395.292872,18.8297408 396.508343,18.7728881 C397.981768,18.6195833 399.454912,17.4626785 399.367441,16.0273096 C399.284136,14.6598721 397.939481,13.7352245 396.732729,13.0216196 C395.949856,12.5586905 395.166985,12.0957856 394.384119,11.6329051 C394.61649,11.183197 394.820738,10.7194944 394.995684,10.2444715 C396.375675,6.71709119 395.560731,2.70802507 392.913237,0 C395.47696,2.61091776 394.822218,6.65167834 392.28935,9.93083711 C392.207688,10.0365041 392.119952,10.139559 392.035128,10.2438575 C391.533277,9.94709971 391.031426,9.65035058 390.529574,9.35361013 C389.277873,8.61348308 387.976644,7.85604926 386.522906,7.6815038 C385.069168,7.50695835 383.412884,8.08269193 382.819352,9.38009583 C382.184037,10.7688468 382.906464,12.5410888 382.078512,13.8305262 C381.354057,14.9588119 379.772698,15.1990408 378.40188,15.1456219 C377.031187,15.0921718 375.573902,14.8755614 374.354319,15.482084 C372.658926,16.3252347 372.102599,18.6054715 372.85664,20.3060044 C373.191904,21.0302886 373.691618,21.6662332 374.315969,22.1631724 C370.687336,22.6700223 367.113561,23.7479383 363.60163,24.844181 C359.460481,26.1368914 355.242122,27.5099486 351.781238,30.1265174 C348.320254,32.7430861 345.698213,36.8734454 346.028016,41.2007718 C346.357818,45.5280983 350.655014,52.343629 354.937625,51.651811 L355.589573,49.6097999 C360.898754,47.0852011 367.224452,48.2103298 371.338411,52.410988 C371.387824,49.6864991 375.53302,48.781323 377.598578,50.5576289 C379.664136,52.3339349 380.062622,55.3371533 380.222751,58.0574013 C380.38288,60.7776337 380.53463,63.7394948 382.325769,65.7923708 C384.044912,67.7626676 386.973344,68.3735611 389.520807,67.786614 C392.068432,67.1996358 394.270604,65.5829152 396.094887,63.7096893 C402.713401,56.9137341 404.84499,46.1129068 401.304868,37.3104334 Z" id="Path" fill="#2F2E41"></path>
                <path d="M332.004159,164.222721 C334.275336,165.85385 337.15391,166.397373 339.86531,165.707037 C342.57671,165.016702 344.842413,163.163421 346.052761,160.645879 L405.0927,161.810799 L409,148.900218 L341.043578,147.68213 C336.57222,145.894275 331.467432,147.726099 329.161239,151.946039 C326.855046,156.165978 328.076399,161.440179 332.004164,164.222716 L332.004159,164.222721 Z" id="Path" fill="#FFB8B8"></path>
                <path d="M389.892236,78.0302472 C389.892236,78.0302472 376,79.0878541 376,90.9859274 C376,102.884001 388.556454,145.188248 388.556454,145.188248 C388.556454,145.188248 379.473087,140.429022 379.473087,149.418676 C379.473087,158.40833 394.701105,184.584087 396.304072,167.133577 C396.304072,167.133577 419.279676,178.238451 417.943936,157.350729 C416.608196,136.463006 402.181611,92.3079361 402.181611,92.3079361 C402.181611,92.3079361 400.578576,77.2370419 389.892236,78.0302472 Z" id="Path" fill="#CCCCCC"></path>
            </g>
        </g>
    </g>
</svg>