<?xml version="1.0" encoding="UTF-8"?>
<svg width="453px" height="276px" viewBox="0 0 453 276" version="1.1" xmlns="http://www.w3.org/2000/svg" xmlns:xlink="http://www.w3.org/1999/xlink">
    <title>undraw_Growth_analytics_re_pyxf</title>
    <g id="Pages-d'erreur-et-presentation" stroke="none" stroke-width="1" fill="none" fill-rule="evenodd">
        <g id="Home" transform="translate(-834.000000, -629.000000)" fill-rule="nonzero">
            <g id="undraw_Growth_analytics_re_pyxf" transform="translate(834.000000, 629.000000)">
                <path d="M19.2494313,252.327194 C23.1533616,253.703962 27.4904017,252.93752 30.6904637,250.305335 C34.6976769,246.930762 35.9542989,241.373116 36.9762893,236.225697 L40,221 L33.6696486,225.373022 C29.1169302,228.517859 24.4619688,231.763741 21.3100041,236.318794 C18.1580393,240.873848 16.7829346,247.092372 19.3146984,252.021356" id="a31475c4-f0df-4934-8dee-db246d5650fa" fill="#E6E6E6"></path>
                <path d="M20.189369,270.5979 C19.4257136,264.964638 18.6399981,259.258528 19.1769519,253.564863 C19.6527951,248.508219 21.1764855,243.570202 24.2784818,239.51961 C25.9250113,237.374067 27.9285379,235.535761 30.1989859,234.08734 C30.7908882,233.70915 31.3357956,234.65882 30.746421,235.03558 C26.8178271,237.549354 23.7791511,241.261398 22.0685055,245.636512 C20.1792534,250.50168 19.8758904,255.805441 20.2013088,260.973747 C20.3980108,264.09918 20.8159979,267.20412 21.2357859,270.305398 C21.3045633,270.59641 21.138949,270.891629 20.8568634,270.980853 C20.5682392,271.059574 20.2707877,270.888506 20.1897488,270.597188 L20.189369,270.5979 Z" id="bc80039d-7499-47e3-8dd4-b917794dfbc0" fill="#F2F2F2"></path>
                <path d="M26,262.179993 C27.6689521,264.654629 30.5409966,266.100671 33.5762208,265.994536 C37.4124746,265.81701 40.6093495,263.207 43.4869155,260.728291 L52,253.398162 L46.3659742,253.135184 C42.3142152,252.945928 38.1579012,252.768411 34.2987159,253.988319 C30.4395306,255.208226 26.8804594,258.13955 26.1748958,262.035154" id="a24c42db-7472-45f4-900c-466dbf3f7d22" fill="#E6E6E6"></path>
                <path d="M18.0725462,274.249468 C21.8109965,267.565609 26.1469049,260.137253 33.8951485,257.762928 C36.0493519,257.10506 38.3081599,256.869385 40.549947,257.068591 C41.2566013,257.130267 41.0801154,258.230673 40.3749393,258.169383 C36.6170667,257.854132 32.8664464,258.85676 29.754481,261.008479 C26.7598276,263.06814 24.4280719,265.931748 22.4547959,268.968093 C21.2459029,270.828256 20.1631203,272.767167 19.0803329,274.703481 C18.7343423,275.32239 17.722526,274.87546 18.0725462,274.249468 Z" id="a7d2fb0b-6149-49f2-88d6-cc03571334a8" fill="#F2F2F2"></path>
                <rect id="b85ae1dc-b170-4f54-a6de-4a72451950d7" fill="#E6E6E6" x="85" y="8" width="315" height="150"></rect>
                <rect id="f015ec3e-20cc-40e8-8473-d753a9bdb685" fill="#FFFFFF" x="93" y="22" width="298" height="124"></rect>
                <rect id="ed585d6d-4c60-4aae-9dcd-e3012a759289" fill="#5770BE" x="85" y="0" width="315" height="13"></rect>
                <circle id="b43fe0fb-7393-4bbe-8dcd-48ed75608891" fill="#FFFFFF" cx="95.5" cy="6.5" r="2.5"></circle>
                <circle id="ada3e127-c3a1-446f-8730-bf32ed0f9b11" fill="#FFFFFF" cx="104.5" cy="6.5" r="2.5"></circle>
                <circle id="e3927273-efa9-4ef7-88ca-a022a07a6d22" fill="#FFFFFF" cx="113.5" cy="6.5" r="2.5"></circle>
                <path d="M164,117 L315,117 L315,90.881049 C314.95367,85.3172927 312.687898,80.0070652 308.714494,76.1498843 L308.673439,76.109438 C305.976483,73.3785191 296.963353,66.4475363 287.637828,67.0351804 C282.71166,67.3446631 278.494157,69.740569 275.102735,74.1564282 C264.546149,87.9068805 250.679039,83.2653511 243.352548,79.2748234 C236.895814,75.7573093 230.301853,74.106334 223.752525,74.3690914 C214.580095,74.7310802 201.669842,78.141175 192.25447,92.3318894 C188.658408,97.7474855 180.8378,105.098739 164,109.418982 L164,117 Z" id="Path" fill="#E4E4E4"></path>
                <path d="M322.505498,118 L164.494502,118 C164.221402,118 164,117.777801 164,117.503717 L164,41.4962833 C164,41.2221936 164.221396,41 164.494502,41 C164.767608,41 164.989005,41.2221936 164.989005,41.4962833 L164.989005,117.007433 L322.505498,117.007433 C322.778604,117.007433 323,117.229627 323,117.503717 C323,117.777806 322.778604,118 322.505498,118 L322.505498,118 Z" id="Path" fill="#3F3D56"></path>
                <rect id="Rectangle" fill="#3F3D56" x="194" y="89" width="1" height="28"></rect>
                <rect id="Rectangle" fill="#3F3D56" x="223" y="75" width="1" height="42"></rect>
                <rect id="Rectangle" fill="#3F3D56" x="252" y="84" width="1" height="33"></rect>
                <rect id="Rectangle" fill="#3F3D56" x="281" y="68" width="1" height="49"></rect>
                <rect id="Rectangle" fill="#3F3D56" x="311" y="79" width="1" height="38"></rect>
                <circle id="Oval" fill="#5770BE" cx="224" cy="76" r="3"></circle>
                <circle id="Oval" fill="#5770BE" cx="282" cy="68" r="3"></circle>
                <circle id="Oval" fill="#5770BE" cx="253" cy="84" r="3"></circle>
                <circle id="Oval" fill="#5770BE" cx="194" cy="89" r="3"></circle>
                <circle id="Oval" fill="#5770BE" cx="311" cy="79" r="3"></circle>
                <polygon id="Path" fill="#FFB6B6" points="67.0008843 270 72.4214657 270 75 247 67 247.000486"></polygon>
                <path d="M65,269.000441 L77.215069,269 L77.2155749,269 C81.5146609,269.000197 84.9997178,272.035155 85,275.779057 L85,275.999352 L65.0003744,276 L65,269.000441 Z" id="Path" fill="#2F2E41"></path>
                <polygon id="Path" fill="#FFB6B6" points="95.0008843 270 100.421466 270 103 247 95 247.000486"></polygon>
                <path d="M93,269.000441 L105.215069,269 L105.215575,269 C109.514661,269.000197 112.999718,272.035155 113,275.779057 L113,275.999352 L93.0003744,276 L93,269.000441 Z" id="Path" fill="#2F2E41"></path>
                <path d="M105.746618,164.197321 C106.731226,163.041978 107.168569,161.496639 106.940968,159.977125 C106.713366,158.457611 105.844199,157.120009 104.567342,156.324241 L95.2024907,110 L85,114.141476 L97.4134672,158.37444 C96.2321874,160.724686 96.94375,163.613795 99.0697594,165.099371 C101.195769,166.584948 104.064226,166.197422 105.746618,164.197335 L105.746618,164.197321 Z" id="Path" fill="#FFB6B6"></path>
                <path d="M60.5843503,156.043708 L56.221601,160.520695 C56.221601,160.520695 51.5441142,177.848853 60.4947487,199.219493 L66.4813819,261.18007 L77.2524937,262 L80.4679192,189.914079 L95.3041191,213.84205 L92.7126987,261.743768 L104.618949,261.467066 L110,208.388375 L95.3041191,153 L60.5843503,156.043708 Z" id="Path" fill="#2F2E41"></path>
                <path d="M75.0541585,162 C68.4375568,161.953756 61.8294423,161.516504 55.2642609,160.690523 L55,160.655327 L61.5481998,131.827308 L59.2934293,94.73584 L80.5854262,94.005222 C84.5768102,93.8602367 88.0364144,96.7500884 88.6111499,100.709212 L92.9689352,130.301861 L97,156.55654 L96.9459866,156.635501 C94.049139,160.890279 84.3636621,162 75.0541585,162 Z" id="Path" fill="#5770BE"></path>
                <path d="M79,100.5448 L83.4956952,95.1928095 C83.4956952,95.1928095 91.3770339,90.0746168 93.8713505,101.04231 C96.3656671,112.010003 101,129.814869 101,129.814869 L85.5889599,131 L79,100.5448 Z" id="Path" fill="#5770BE"></path>
                <path d="M38.2533822,165.197321 C37.2687741,164.041978 36.8314308,162.496639 37.0590324,160.977125 C37.2866341,159.457611 38.1558008,158.120009 39.4326576,157.324241 L48.7975093,111 L59,115.141476 L46.5865328,159.37444 C47.7678126,161.724686 47.05625,164.613795 44.9302406,166.099371 C42.8042312,167.584948 39.9357745,167.197422 38.2533822,165.197335 L38.2533822,165.197321 Z" id="Path" fill="#FFB6B6"></path>
                <path d="M65,101.5448 L60.5043048,96.1928095 C60.5043048,96.1928095 52.6229661,91.0746168 50.1286495,102.04231 C47.6343329,113.010003 43,130.814869 43,130.814869 L58.4110401,132 L65,101.5448 Z" id="Path" fill="#5770BE"></path>
                <path d="M82.7835821,89 L54.2164179,89 C52.9928957,88.9986224 52.0013789,88.0080595 52,86.7857143 L52,74.484127 C52,65.380195 59.3873016,58 68.5,58 C77.6126984,58 85,65.380195 85,74.484127 L85,86.7857143 C84.9986211,88.0080595 84.0071043,88.9986224 82.7835821,89 L82.7835821,89 Z" id="Path" fill="#2F2E41"></path>
                <circle id="Oval" fill="#FFB6B6" cx="72" cy="76" r="12"></circle>
                <path d="M89,76 L71.8786807,76 L71.7030676,73.5483926 L70.8252386,76 L68.1889228,76 L67.8409986,71.1409852 L66.1011366,76 L61,76 L61,75.7592593 C61.0079201,68.7158346 66.7308802,63.007963 73.7929876,63 L76.2068966,63 C83.2690239,63.0079602 88.9920187,68.7158148 89,75.7592593 L89,76 Z" id="Path" fill="#2F2E41"></path>
                <path d="M71.8416644,91 C71.713563,91 71.5857162,90.9884998 71.4595743,90.9660069 L59,88.7507243 L59,68 L72.7155937,68 L72.3760263,68.3989588 C67.6515749,73.9513698 71.2109008,82.9546757 73.7530455,87.8271951 C74.13542,88.5554574 74.0697128,89.4401219 73.5840199,90.1029121 C73.1796933,90.6663121 72.5316377,91 71.8416644,91 L71.8416644,91 Z" id="Path" fill="#2F2E41"></path>
                <polygon id="Path" fill="#9E616A" points="419.998674 270 414.578834 270 412 247 420 247.000486"></polygon>
                <path d="M421.999636,276 L402,275.999352 L402,275.779056 C402.000302,272.035153 405.485349,269.000202 409.784419,269 L409.784925,269 L422,269.000441 L421.999636,276 Z" id="Path" fill="#2F2E41"></path>
                <polygon id="Path" fill="#9E616A" points="398.998674 270 393.578834 270 391 247 399 247.000486"></polygon>
                <path d="M400.999636,276 L381,275.999352 L381,275.779056 C381.000302,272.035153 384.485349,269.000202 388.784419,269 L388.784925,269 L401,269.000441 L400.999636,276 Z" id="Path" fill="#2F2E41"></path>
                <path d="M329.090647,108.836569 C330.058566,110.156875 331.566377,110.984126 333.208359,111.095724 C334.85034,111.207322 336.457823,110.591804 337.598267,109.414794 L349.436185,114 L354,107.544202 L337.190883,101.301891 C335.022785,99.492937 331.833258,99.5783049 329.766671,101.500601 C327.700084,103.422897 327.409652,106.574513 329.090637,108.836569 L329.090647,108.836569 Z" id="Path" fill="#9E616A"></path>
                <polygon id="Path" fill="#2F2E41" points="398.535859 148 383 153.072307 388.189969 263.191858 400.179917 263.488826 406.315949 185.830775 407.709507 263.182121 422.534724 264 428 148"></polygon>
                <path d="M388.118807,83.6017407 L428.50854,75 L433,109.088587 L429.26004,125.376378 L430.758089,150.129178 C430.758089,150.129178 398.821342,165.709592 383,153.028613 C383,153.028613 395.716336,120.28999 388.345443,104.964266 L388.118807,83.6017407 Z" id="Path" fill="#3F3D56"></path>
                <path d="M394.884487,87.8752139 L388.058118,83.0116988 C388.058118,83.0116988 387.654897,82.4459318 381.966255,89.1833388 C376.277613,95.9207457 364.737527,106.63769 364.737527,106.63769 L345.504051,99.3306827 L342,112.446732 L364.353238,123 L396,101.587978 L394.884487,87.8752139 Z" id="Path" fill="#3F3D56"></path>
                <path d="M430.051706,163.453835 C431.547103,162.758309 432.652798,161.446337 433.071267,159.870947 C433.489736,158.295558 433.177993,156.618581 432.219921,155.291264 L439,144.636045 L433.428454,139 L424.068335,154.179667 C421.861875,155.951049 421.349749,159.067365 422.876267,161.433461 C424.402785,163.799558 427.485439,164.667547 430.051706,163.453864 L430.051706,163.453835 Z" id="Path" fill="#9E616A"></path>
                <path d="M422,81.9982021 L428.260509,75.1891622 C428.260509,75.1891622 435.236136,72.7597771 440.935367,85.313355 C446.634599,97.8669329 453,123.330421 453,123.330421 L438.117268,152 L426.559106,146.835198 L438.117268,123.127991 L425.886322,105.571534 L422,81.9982021 Z" id="Path" fill="#3F3D56"></path>
                <circle id="Oval" fill="#9E616A" transform="translate(405.035867, 60.607324) rotate(-28.663160) translate(-405.035867, -60.607324) " cx="405.035867" cy="60.6073241" r="12.9392363"></circle>
                <path d="M416.819451,50.1029868 L417.438574,48.8550854 L414.323304,47.3050435 C414.323304,47.3050435 410.886666,41.7051868 404.667938,43.2788758 C398.449209,44.8525648 395.651295,45.7943703 395.651295,45.7943703 L392.543906,47.3601577 L394.103487,48.914136 L391.305655,49.8559798 L393.174807,50.786005 L391,52.0378428 L392.170743,58.4551988 C392.170743,58.4551988 394.11527,53.5878799 397.853565,55.4479157 C401.59186,57.3079515 408.429774,54.4863947 408.429774,54.4863947 L414.37041,66 C414.37041,66 415.595967,61.9639072 417.781059,63.0401169 C417.781107,63.0401266 423.363449,54.1370177 416.819451,50.1029868 Z" id="Path" fill="#2F2E41"></path>
                <path d="M145.51495,276 L0.485049834,276 C0.217164208,276 0,275.776142 0,275.5 C0,275.223858 0.217164208,275 0.485049834,275 L145.51495,275 C145.782836,275 146,275.223858 146,275.5 C146,275.776142 145.782836,276 145.51495,276 Z" id="Path" fill="#CACACA"></path>
                <path d="M452.515152,276 L341.484848,276 C341.217074,276 341,275.776142 341,275.5 C341,275.223858 341.217074,275 341.484848,275 L452.515152,275 C452.782926,275 453,275.223858 453,275.5 C453,275.776142 452.782926,276 452.515152,276 Z" id="Path" fill="#CACACA"></path>
            </g>
        </g>
    </g>
</svg>