<?xml version="1.0" encoding="UTF-8"?>
<svg width="191px" height="195px" viewBox="0 0 191 195" version="1.1" xmlns="http://www.w3.org/2000/svg"
    xmlns:xlink="http://www.w3.org/1999/xlink">
    <link xmlns="" type="text/css" rel="stylesheet" id="dark-mode-custom-link" />
    <link xmlns="" type="text/css" rel="stylesheet" id="dark-mode-general-link" />
    <style xmlns="" lang="en" type="text/css" id="dark-mode-custom-style" />
    <style xmlns="" lang="en" type="text/css" id="dark-mode-native-style" />
    <title>Open Collectivités</title>
    <g id="logo-open-collectivites" stroke="none" stroke-width="1" fill="none" fill-rule="evenodd">
        <g id="logo" transform="translate(0.000000, 1.000000)">
            <path
                d="M186.390405,47.6192941 C187.802058,48.7452088 188.344072,50.761911 187.492489,52.502633 L187.492489,52.502633 L187.403655,52.6739403 L156.461068,109.086251 L173.24506,155.458982 C173.802825,157.000084 173.362533,158.717631 172.151494,159.800849 L172.151494,159.800849 L171.98918,159.938475 L144.433517,182.07838 C143.356237,182.943933 141.908489,183.192118 140.60443,182.734794 L140.60443,182.734794 L112.164068,172.761251 L90.1642116,192.166141 C88.991991,193.200096 87.3312177,193.452383 85.9120991,192.829749 L85.9120991,192.829749 L85.7110907,192.734839 L30.7591882,164.906251 C33.1729491,163.436581 35.1669816,161.345873 36.5193617,158.856051 L86.9060678,184.372251 L108.630162,165.210929 C109.658594,164.303803 111.0753,163.990109 112.383008,164.366907 L112.383008,164.366907 L112.599865,164.436117 L141.154068,174.450251 L164.749068,155.492251 L148.324053,110.109498 C147.959017,109.100908 148.015329,107.991254 148.473799,107.028553 L148.473799,107.028553 L148.578191,106.8246 L173.16328,62.0011491 C180.206042,60.798154 185.678566,54.9922708 186.375084,47.789266 Z M3.93546131,38.1288393 L4.12145055,38.1301089 L24.8219996,38.7223612 C26.4666687,42.4226178 29.4741225,45.3830861 33.2071244,46.9665295 L11.3210678,46.3392514 L42.0850396,95.9760211 C42.6698915,96.9197066 42.8344192,98.0606453 42.5468159,99.1257034 L42.5468159,99.1257034 L42.4782546,99.3526692 L29.8629648,137.047392 C27.646876,135.886738 25.1251372,135.230251 22.4500678,135.230251 C22.3103634,135.230251 22.1710771,135.232042 22.0322308,135.235601 L34.2950678,98.5942514 L0.606969519,44.235622 C-1.0387418,41.5801912 0.85890359,38.1753908 3.93546131,38.1288393 L3.93546131,38.1288393 Z M98.3450546,0.972917391 C99.9213223,-0.388614123 102.278621,-0.312646097 103.763953,1.14755079 L103.763953,1.14755079 L139.777068,36.5512514 L155.633595,40.1798719 C154.870609,42.0463785 154.450068,44.0892036 154.450068,46.2302514 C154.450068,46.8769548 154.488436,47.514697 154.563019,48.1413258 L136.888116,44.096737 C136.246408,43.9498943 135.652135,43.6472585 135.157081,43.2171803 L135.157081,43.2171803 L134.976188,43.0499825 L100.784068,9.43625138 L70.123209,35.9212777 C68.9548238,36.9304929 67.3099428,37.1771994 65.8968947,36.5551588 L65.8968947,36.5551588 L55.447,31.955 L55.4470314,31.9153807 C55.3681,27.8261173 53.7550232,24.1125991 51.1594804,21.3265055 L66.8060678,28.2132514 Z"
                id="Combined-Shape" fill="#000091" />
            <path
                d="M39.4500678,12.2302514 C50.4957628,12.2302514 59.4500678,21.1845564 59.4500678,32.2302514 C59.4500678,35.8271955 58.500528,39.2023627 56.8384387,42.1187628 L82.9974823,60.4304687 C86.5498012,57.199611 91.2699502,55.2302514 96.4500678,55.2302514 C103.055276,55.2302514 108.912621,58.4322325 112.554566,63.3686582 L151.202698,51.6840344 C150.712417,49.9503267 150.450068,48.1209265 150.450068,46.2302514 C150.450068,35.1845564 159.404373,26.2302514 170.450068,26.2302514 C181.495763,26.2302514 190.450068,35.1845564 190.450068,46.2302514 C190.450068,57.2759464 181.495763,66.2302514 170.450068,66.2302514 C164.213667,66.2302514 158.643945,63.3758579 154.976087,58.9022547 L115.935845,70.7044934 C116.272259,72.1587473 116.450068,73.6737346 116.450068,75.2302514 C116.450068,81.5186145 113.54791,87.1291424 109.009911,90.7955184 L128.859774,126.34147 C130.923348,125.621556 133.141011,125.230251 135.450068,125.230251 C146.495763,125.230251 155.450068,134.184556 155.450068,145.230251 C155.450068,156.275946 146.495763,165.230251 135.450068,165.230251 C124.404373,165.230251 115.450068,156.275946 115.450068,145.230251 C115.450068,139.370549 117.970046,134.09942 121.9854,130.441467 L101.902852,94.4779039 C100.169441,94.968003 98.3403799,95.2302514 96.4500678,95.2302514 C93.9632774,95.2302514 91.5824923,94.776389 89.3860278,93.9469798 L41.8669398,146.416426 C42.2479329,147.958306 42.4500678,149.570673 42.4500678,151.230251 C42.4500678,162.275946 33.4957628,171.230251 22.4500678,171.230251 C11.4043728,171.230251 2.45006777,162.275946 2.45006777,151.230251 C2.45006777,140.184556 11.4043728,131.230251 22.4500678,131.230251 C28.7583807,131.230251 34.3845507,134.150853 38.0501707,138.713648 L82.5349199,89.5958107 C78.782472,85.9602935 76.4500678,80.8676536 76.4500678,75.2302514 C76.4500678,72.2519253 77.1010817,69.4256516 78.2685712,66.8859688 L51.5308201,48.1707418 C48.1744519,50.7183667 43.9888197,52.2302514 39.4500678,52.2302514 C28.4043728,52.2302514 19.4500678,43.2759464 19.4500678,32.2302514 C19.4500678,21.1845564 28.4043728,12.2302514 39.4500678,12.2302514 Z M22.4500678,139.230251 C15.8226508,139.230251 10.4500678,144.602834 10.4500678,151.230251 C10.4500678,157.857668 15.8226508,163.230251 22.4500678,163.230251 C29.0774848,163.230251 34.4500678,157.857668 34.4500678,151.230251 C34.4500678,144.602834 29.0774848,139.230251 22.4500678,139.230251 Z M135.450068,133.230251 C128.822651,133.230251 123.450068,138.602834 123.450068,145.230251 C123.450068,151.857668 128.822651,157.230251 135.450068,157.230251 C142.077485,157.230251 147.450068,151.857668 147.450068,145.230251 C147.450068,138.602834 142.077485,133.230251 135.450068,133.230251 Z M96.4500678,63.2302514 C89.8226508,63.2302514 84.4500678,68.6028344 84.4500678,75.2302514 C84.4500678,81.8576684 89.8226508,87.2302514 96.4500678,87.2302514 C103.077485,87.2302514 108.450068,81.8576684 108.450068,75.2302514 C108.450068,68.6028344 103.077485,63.2302514 96.4500678,63.2302514 Z M170.450068,34.2302514 C163.822651,34.2302514 158.450068,39.6028344 158.450068,46.2302514 C158.450068,52.8576684 163.822651,58.2302514 170.450068,58.2302514 C177.077485,58.2302514 182.450068,52.8576684 182.450068,46.2302514 C182.450068,39.6028344 177.077485,34.2302514 170.450068,34.2302514 Z M39.4500678,20.2302514 C32.8226508,20.2302514 27.4500678,25.6028344 27.4500678,32.2302514 C27.4500678,38.8576684 32.8226508,44.2302514 39.4500678,44.2302514 C46.0774848,44.2302514 51.4500678,38.8576684 51.4500678,32.2302514 C51.4500678,25.6028344 46.0774848,20.2302514 39.4500678,20.2302514 Z"
                id="Combined-Shape" fill="#E1000F" />
        </g>
    </g>
</svg>