<svg version="1.1" xmlns="http://www.w3.org/2000/svg" viewBox="0 0 430.2442856173031 418.27892942314975" width="430.2442856173031" height="418.27892942314975">
  <!-- svg-source:excalidraw -->
  
  <defs>
    <style>
      @font-face {
        font-family: "Virgil";
        src: url("https://excalidraw.com/Virgil.woff2");
      }
      @font-face {
        font-family: "Cascadia";
        src: url("https://excalidraw.com/Cascadia.woff2");
      }
    </style>
  </defs>
  <rect x="0" y="0" width="430.2442856173031" height="418.27892942314975" fill="#ffffff"></rect><g stroke-linecap="round" transform="translate(66.74428561730309 37.15429796688258) rotate(0 39.5 38)"><path d="M31.68 0.07 C39.01 -1.86, 50.18 -0.38, 57.24 3.09 C64.3 6.56, 70.46 14.04, 74.03 20.89 C77.61 27.73, 79.67 36.9, 78.69 44.15 C77.71 51.4, 73.73 59.09, 68.16 64.41 C62.6 69.73, 53.13 74.95, 45.32 76.08 C37.51 77.21, 27.98 74.61, 21.3 71.18 C14.61 67.74, 8.67 62.09, 5.19 55.47 C1.71 48.85, -0.56 38.96, 0.41 31.46 C1.38 23.96, 5.44 15.63, 11 10.47 C16.56 5.3, 29.54 2.16, 33.78 0.48 C38.03 -1.19, 36.25 -0.15, 36.48 0.42 M24.28 4.54 C30.87 0.92, 40.09 -1.16, 47.4 0.01 C54.7 1.19, 62.73 5.67, 68.12 11.6 C73.51 17.52, 78.77 28.1, 79.76 35.58 C80.75 43.05, 78.11 50.03, 74.06 56.45 C70.01 62.87, 62.71 70.88, 55.44 74.09 C48.17 77.31, 38.22 77.72, 30.43 75.72 C22.64 73.72, 13.99 68, 8.69 62.09 C3.38 56.18, -0.78 47.5, -1.39 40.26 C-2 33.01, 1.04 24.87, 5.02 18.62 C8.99 12.36, 19.11 5.29, 22.47 2.72 C25.83 0.15, 24.73 2.68, 25.17 3.2" stroke="#c92a2a" stroke-width="4" fill="none"></path></g><g stroke-linecap="round" transform="translate(180.2442856173031 111.15429796688258) rotate(0 39.5 38)"><path d="M22.98 2.97 C29.45 -0.36, 39.19 -0.64, 46.78 0.78 C54.36 2.2, 63.25 5.88, 68.48 11.49 C73.71 17.1, 77.22 26.71, 78.16 34.44 C79.1 42.18, 78 51.6, 74.12 57.89 C70.25 64.18, 62.25 69.46, 54.93 72.17 C47.62 74.88, 37.63 75.59, 30.21 74.16 C22.79 72.73, 15.33 69.23, 10.42 63.61 C5.5 57.99, 1.39 47.88, 0.71 40.44 C0.03 32.99, 2.05 25.21, 6.32 18.94 C10.59 12.67, 22.5 5.67, 26.34 2.82 C30.17 -0.04, 29.31 1.32, 29.33 1.8 M23.45 4.27 C29.74 1.17, 40.18 -0.46, 47.71 0.86 C55.23 2.18, 63.18 6.49, 68.61 12.2 C74.03 17.9, 79.32 27.48, 80.25 35.09 C81.19 42.7, 78.78 51.72, 74.21 57.86 C69.65 64.01, 60.23 68.91, 52.86 71.95 C45.49 74.99, 37.15 77.59, 30 76.1 C22.86 74.6, 14.9 68.79, 9.98 62.98 C5.05 57.17, 1.07 48.75, 0.45 41.21 C-0.17 33.67, 2.18 24.28, 6.26 17.75 C10.34 11.22, 22.01 4.3, 24.91 2.02 C27.81 -0.25, 23.32 3.17, 23.67 4.09" stroke="#c92a2a" stroke-width="4" fill="none"></path></g><g stroke-linecap="round" transform="translate(341.2442856173031 58.15429796688258) rotate(0 39.5 38)"><path d="M31.55 0.25 C38.87 -1.62, 49.59 0.39, 56.58 3.58 C63.56 6.78, 69.71 12.74, 73.48 19.43 C77.25 26.12, 80.01 36.28, 79.21 43.72 C78.41 51.15, 74.32 58.87, 68.69 64.04 C63.05 69.21, 53.38 73.31, 45.39 74.72 C37.41 76.14, 27.52 75.68, 20.76 72.52 C14 69.37, 8.35 62.47, 4.83 55.79 C1.31 49.12, -1.65 39.91, -0.37 32.47 C0.9 25.03, 6.68 16.55, 12.47 11.15 C18.25 5.75, 30.52 1.93, 34.33 0.07 C38.13 -1.79, 35.32 -0.56, 35.3 -0.02 M54.93 1.87 C62.2 3.9, 68.82 10.05, 72.66 16.7 C76.49 23.35, 78.38 33.99, 77.92 41.78 C77.45 49.58, 74.72 58.21, 69.87 63.49 C65.02 68.77, 56.61 71.82, 48.83 73.46 C41.04 75.11, 30.13 75.82, 23.17 73.37 C16.2 70.92, 10.74 65.11, 7.04 58.74 C3.34 52.37, 0.33 42.8, 0.96 35.15 C1.59 27.51, 5.75 18.42, 10.81 12.89 C15.87 7.35, 24.35 3.73, 31.33 1.92 C38.3 0.1, 48.94 1.52, 52.68 2 C56.42 2.47, 53.67 4.08, 53.77 4.76" stroke="#c92a2a" stroke-width="4" fill="none"></path></g><g stroke-linecap="round" transform="translate(44.24428561730309 310.1542979668826) rotate(0 39.5 38)"><path d="M50.01 1.69 C57.34 2.87, 66.44 7.92, 71.21 13.79 C75.97 19.66, 78.28 29.2, 78.6 36.91 C78.93 44.62, 77.45 53.76, 73.13 60.05 C68.81 66.33, 60.19 72.22, 52.67 74.61 C45.14 77, 35.46 76.62, 27.98 74.37 C20.5 72.12, 12.44 66.97, 7.78 61.13 C3.11 55.29, 0.17 46.92, 0 39.34 C-0.17 31.75, 2.08 21.85, 6.77 15.62 C11.46 9.38, 19.48 3.7, 28.14 1.91 C36.81 0.12, 52.28 3.23, 58.78 4.89 C65.29 6.54, 67.37 11.25, 67.2 11.83 M26.04 2.2 C32.79 -0.39, 43.55 -1.02, 51.15 1.37 C58.75 3.76, 66.75 10.61, 71.64 16.55 C76.52 22.49, 80.58 29.51, 80.47 36.99 C80.36 44.46, 75.93 55.18, 70.97 61.42 C66.01 67.66, 57.92 72.12, 50.72 74.4 C43.52 76.68, 34.82 77.78, 27.76 75.1 C20.69 72.43, 13.2 64.7, 8.34 58.34 C3.47 51.99, -1.43 44.08, -1.45 36.98 C-1.47 29.88, 3.57 21.61, 8.2 15.75 C12.84 9.88, 23.29 4.05, 26.38 1.8 C29.46 -0.46, 26.64 1.5, 26.74 2.23" stroke="#c92a2a" stroke-width="4" fill="none"></path></g><g stroke-linecap="round" transform="translate(280.2442856173031 276.1542979668826) rotate(0 39.5 38)"><path d="M44.91 0.99 C52.08 1.35, 60.46 4.92, 66.08 10.15 C71.69 15.38, 77.01 24.92, 78.6 32.36 C80.18 39.8, 78.92 48.24, 75.58 54.78 C72.24 61.32, 65.57 68.14, 58.56 71.58 C51.55 75.02, 41.31 76.52, 33.53 75.41 C25.75 74.29, 17.25 70.26, 11.89 64.9 C6.52 59.54, 2.63 50.47, 1.34 43.23 C0.05 35.99, 0.71 28.11, 4.15 21.48 C7.59 14.85, 13.85 6.54, 21.99 3.44 C30.14 0.34, 46.49 2.26, 53 2.9 C59.51 3.54, 61.27 6.9, 61.07 7.29 M42.62 -0.2 C50.2 -0.01, 58.68 4.17, 64.73 9.33 C70.78 14.48, 77.23 23.55, 78.9 30.74 C80.58 37.94, 77.83 45.93, 74.78 52.49 C71.73 59.04, 67.09 66, 60.61 70.06 C54.12 74.12, 43.58 77.27, 35.87 76.85 C28.16 76.44, 20.42 73, 14.36 67.6 C8.29 62.2, 1.31 51.99, -0.53 44.46 C-2.36 36.93, -0.22 29.08, 3.36 22.41 C6.94 15.74, 14.49 8.22, 20.97 4.44 C27.44 0.65, 38.72 0.5, 42.21 -0.29 C45.69 -1.08, 41.78 -1.25, 41.87 -0.33" stroke="#c92a2a" stroke-width="4" fill="none"></path></g><g stroke-linecap="round"><g transform="translate(153.7442856173031 69.15429796688258) rotate(0 14.418972112983482 10.248853063695123)"><path d="M-0.07 0.45 C4.59 4.12, 23.44 17.57, 28.14 20.86 M-1.56 -0.36 C3.45 3.08, 25.04 15.53, 30.4 19.19" stroke="#364fc7" stroke-width="4" fill="none"></path></g></g><g stroke-linecap="round"><g transform="translate(180.7442856173031 89.15429796688258) rotate(0 27.603058730438363 -39.45202301032842)"><path d="M-0.77 -0.37 C8.37 -13.43, 46.85 -65.73, 55.98 -78.54 M1.02 -1.61 C9.99 -14.49, 46.32 -64.37, 55.54 -77.28" stroke="#364fc7" stroke-width="4" fill="none"></path></g></g><g stroke-linecap="round"><g transform="translate(236.7442856173031 11.15429796688258) rotate(0 29.79732087362558 37.88589078020304)"><path d="M-1.02 -1.15 C8.75 11.42, 48.24 62.77, 58.28 75.6 M0.64 0.85 C10.83 13.58, 50.97 64.23, 60.62 76.93" stroke="#364fc7" stroke-width="4" fill="none"></path></g></g><g stroke-linecap="round"><g transform="translate(295.7442856173031 87.15429796688258) rotate(0 17.90603252537545 -0.07217310943192956)"><path d="M-0.29 -1.17 C5.73 -1.25, 30.08 -0.49, 36.1 -0.03 M1.76 0.82 C7.63 0.82, 29.66 1.18, 35.2 0.96" stroke="#364fc7" stroke-width="4" fill="none"></path></g></g><g stroke-linecap="round"><g transform="translate(378.7442856173031 144.15429796688258) rotate(0 -16.788961423560977 43.26917366726323)"><path d="M0.49 0.9 C-5.34 15.2, -28.44 70.96, -34.07 84.79 M-0.71 0.33 C-6.26 14.91, -26.33 72.17, -31.92 86.21" stroke="#364fc7" stroke-width="4" fill="none"></path></g></g><g stroke-linecap="round"><g transform="translate(349.7442856173031 229.15429796688258) rotate(0 22.20898833982642 46.25204209193589)"><path d="M-0.48 0.01 C7.02 15.53, 37.66 76.76, 44.9 92.34 M1.47 -1.03 C8.9 14.71, 37.12 78.12, 44.43 93.53" stroke="#364fc7" stroke-width="4" fill="none"></path></g></g><g stroke-linecap="round"><g transform="translate(396.7442856173031 323.1542979668826) rotate(0 -27.185531021468364 27.956331850439284)"><path d="M-0.19 -0.32 C-9.12 8.88, -44.22 46.55, -53.15 55.94 M-1.75 -1.53 C-10.89 7.79, -45.92 47.63, -54.18 57.44" stroke="#364fc7" stroke-width="4" fill="none"></path></g></g><g stroke-linecap="round"><g transform="translate(336.7442856173031 382.1542979668826) rotate(0 -37.31182326655835 -12.990900038070976)"><path d="M0.58 0.68 C-12.09 -3.64, -62.04 -20.54, -74.85 -25.04 M-0.58 -0.01 C-13.41 -4.73, -62.43 -22.46, -75.2 -26.66" stroke="#364fc7" stroke-width="4" fill="none"></path></g></g><g stroke-linecap="round"><g transform="translate(259.7442856173031 356.1542979668826) rotate(0 -25.927694858238112 25.73915594461377)"><path d="M0.04 -0.65 C-8.44 8, -43.28 42.14, -51.89 50.73 M-1.4 1.63 C-9.41 10.56, -41.1 43.7, -49.65 52.12" stroke="#364fc7" stroke-width="4" fill="none"></path></g></g><g stroke-linecap="round"><g transform="translate(210.7442856173031 406.1542979668826) rotate(0 -43.24891376915389 -15.167088071228932)"><path d="M0.94 -0.54 C-13.45 -5.89, -71.93 -26.73, -86.32 -32.12 M-0.03 1.79 C-14.6 -3.36, -73.13 -25.01, -87.44 -30.65" stroke="#364fc7" stroke-width="4" fill="none"></path></g></g><g stroke-linecap="round"><g transform="translate(59.822550561930996 89.48144009932875) rotate(0 -24.872142808651546 -3.0404780620709033)"><path d="M0.08 0.33 C-7.95 -0.58, -40.5 -5.36, -48.6 -6.41 M-1.34 -0.55 C-9.53 -1.26, -41.8 -4.7, -49.82 -5.44" stroke="#364fc7" stroke-width="4" fill="none"></path></g></g><g stroke-linecap="round"><g transform="translate(10.744285617303092 90.15429796688258) rotate(0 42.050705970050785 65.53788032057696)"><path d="M0.53 -0.24 C14.52 21.97, 70.87 110.42, 84.75 132.49 M-0.65 -1.41 C13.18 20.51, 70.26 108.13, 84.19 130.62" stroke="#364fc7" stroke-width="4" fill="none"></path></g></g><g stroke-linecap="round"><g transform="translate(92.74428561730309 222.15429796688258) rotate(0 -9.452794874832051 38.83859698288143)"><path d="M1.2 -1.13 C-2.22 12.06, -16.69 65.46, -20.1 78.8 M0.36 0.9 C-2.72 13.77, -14.54 64.41, -17.97 77.1" stroke="#364fc7" stroke-width="4" fill="none"></path></g></g><g stroke-linecap="round"><g transform="translate(139.7442856173031 100.15429796688258) rotate(0 23.419232185902075 14.04684567901306)"><path d="M0.98 0.33 C8.67 5.13, 39.46 23.93, 46.8 28.63 M0.04 -0.54 C7.58 3.92, 38.38 22.34, 46.27 26.84" stroke="#c92a2a" stroke-width="4" fill="none"></path></g></g><g stroke-linecap="round"><g transform="translate(258.7442856173031 134.15429796688258) rotate(0 40.72770613414235 -9.923438553884608)"><path d="M0.04 1.06 C13.69 -2.4, 69.06 -17.11, 82.85 -20.91 M-1.39 0.58 C12.09 -2.66, 68.38 -15.76, 82.34 -19.33" stroke="#c92a2a" stroke-width="4" fill="none"></path></g></g><g stroke-linecap="round"><g transform="translate(245.7442856173031 179.15429796688258) rotate(0 31.126884864643216 46.95267419385726)"><path d="M-0.4 -0.32 C10.06 15.78, 52.19 79.59, 62.66 95.44 M1.59 -1.53 C11.96 14.3, 52.01 77.29, 62.05 93.55" stroke="#c92a2a" stroke-width="4" fill="none"></path></g></g><g stroke-linecap="round"><g transform="translate(192.04233744060622 183.4138606309891) rotate(0 -39.42532045785339 66.15617895964533)"><path d="M0.3 -0.74 C-12.71 21.62, -66.22 110.95, -79.15 133.05 M-1 1.49 C-13.54 23.56, -64.14 109.21, -76.88 131.09" stroke="#c92a2a" stroke-width="4" fill="none"></path></g></g></svg>